<svg id="Layer_1" data-name="Layer 1" xmlns="http://www.w3.org/2000/svg" viewBox="0 0 91.82 88.71"><defs><style>.cls-1{fill:#9cd8d8;}.cls-1,.cls-2{stroke:#52565a;stroke-linecap:round;stroke-linejoin:round;}.cls-2{fill:none;stroke-width:2px;}</style></defs><title>WS_8055 Modules Alternative_012519</title><polygon class="cls-1" points="91.32 72.84 72.96 78.94 72.96 57.61 91.32 51.52 91.32 72.84"/><polygon class="cls-1" points="54.59 72.84 72.96 78.94 72.96 57.61 54.59 51.52 54.59 72.84"/><polygon class="cls-1" points="72.96 45.42 54.59 51.22 72.96 57.61 91.32 51.52 72.96 45.42"/><polygon class="cls-1" points="37.22 72.84 18.86 78.94 18.86 57.61 37.22 51.52 37.22 72.84"/><polygon class="cls-1" points="0.5 72.84 18.86 78.94 18.86 57.61 0.5 51.52 0.5 72.84"/><polygon class="cls-1" points="18.86 45.42 0.5 51.22 18.86 57.61 37.22 51.52 18.86 45.42"/><polygon class="cls-1" points="63.82 27.93 45.46 34.02 45.46 12.7 63.82 6.6 63.82 27.93"/><polygon class="cls-1" points="27.1 27.93 45.46 34.02 45.46 12.7 27.1 6.6 27.1 27.93"/><polygon class="cls-1" points="45.46 0.5 27.1 6.3 45.46 12.7 63.82 6.6 45.46 0.5"/><polyline class="cls-2" points="68.59 17.16 84.52 25.26 83.59 43.4"/><polyline class="cls-2" points="21.39 17.16 5.46 25.26 6.39 43.4"/><polyline class="cls-2" points="32.21 78.76 45.46 87.71 59.93 78.76"/></svg>